<svg width="59" height="89" viewBox="0 0 59 89" fill="none" xmlns="http://www.w3.org/2000/svg">
<g clip-path="url(#clip0_2_212)">
<path d="M15.1329 88.9906C23.1714 88.9906 29.6915 82.3508 29.6915 74.1649V59.3392H15.1329C7.09435 59.3392 0.574219 65.9789 0.574219 74.1649C0.574219 82.3508 7.09435 88.9906 15.1329 88.9906Z" fill="#0ACF83"/>
<path d="M0.574219 44.4953C0.574219 36.3093 7.09435 29.6696 15.1329 29.6696H29.6915V59.3392H15.1329C7.09435 59.321 0.574219 52.6813 0.574219 44.4953Z" fill="#A259FF"/>
<path d="M0.574219 14.8257C0.574219 6.63973 7.09435 0 15.1329 0H29.6915V29.6696H15.1329C7.09435 29.6696 0.574219 23.0117 0.574219 14.8257Z" fill="#F24E1E"/>
<path d="M29.7094 0H44.268C52.3065 0 58.8266 6.63973 58.8266 14.8257C58.8266 23.0117 52.3065 29.6514 44.268 29.6514H29.7094V0Z" fill="#FF7262"/>
<path d="M58.8266 44.4953C58.8266 52.6813 52.3065 59.321 44.268 59.321C36.2295 59.321 29.7094 52.6813 29.7094 44.4953C29.7094 36.3093 36.2295 29.6696 44.268 29.6696C52.3065 29.6696 58.8266 36.3093 58.8266 44.4953Z" fill="#1ABCFE"/>
</g>
<defs>
<clipPath id="clip0_2_212">
<rect width="58.2524" height="88.9906" fill="white" transform="translate(0.574219)"/>
</clipPath>
</defs>
</svg>
