<svg width="41" height="40" viewBox="0 0 41 40" fill="none" xmlns="http://www.w3.org/2000/svg">
<g clip-path="url(#clip0_120_144)">
<path d="M35.0281 0H6.6683C3.42844 0 0.792664 2.62848 0.792664 5.85938V34.1406C0.792664 37.3715 3.42844 40 6.6683 40H35.0281C38.2679 40 40.9037 37.3715 40.9037 34.1406V5.85938C40.9037 2.62848 38.2679 0 35.0281 0ZM38.5534 34.1406C38.5534 36.0791 36.9719 37.6562 35.0281 37.6562H6.6683C4.72445 37.6562 3.14292 36.0791 3.14292 34.1406V5.85938C3.14292 3.9209 4.72445 2.34375 6.6683 2.34375H35.0281C36.9719 2.34375 38.5534 3.9209 38.5534 5.85938V34.1406Z" fill="white" stroke="white" stroke-width="0.5"/>
<path d="M19.673 16.4844C19.673 13.8995 17.5645 11.7969 14.9725 11.7969H7.92175V28.2031H14.9725C17.5645 28.2031 19.673 26.1005 19.673 23.5156C19.673 22.1167 19.0546 20.8597 18.0765 20C19.0546 19.1403 19.673 17.8833 19.673 16.4844ZM17.3228 23.5156C17.3228 24.808 16.2685 25.8594 14.9725 25.8594H10.272V21.1719H14.9725C16.2685 21.1719 17.3228 22.2232 17.3228 23.5156ZM10.272 18.8281V14.1406H14.9725C16.2685 14.1406 17.3228 15.192 17.3228 16.4844C17.3228 17.7768 16.2685 18.8281 14.9725 18.8281H10.272Z" fill="white" stroke="white" stroke-width="0.5"/>
<path d="M27.899 16.4844C24.6591 16.4844 22.0233 19.1129 22.0233 22.3438C22.0233 25.5746 24.6591 28.2031 27.899 28.2031C29.99 28.2031 31.94 27.081 32.9878 25.2744L30.9534 24.1006C30.3242 25.1855 29.1537 25.8594 27.899 25.8594C26.3667 25.8594 25.06 24.8798 24.5749 23.5156H33.7746V22.3438C33.7746 19.1129 31.1388 16.4844 27.899 16.4844ZM24.5749 21.1719C25.06 19.8077 26.3667 18.8281 27.899 18.8281C29.4312 18.8281 30.7379 19.8077 31.223 21.1719H24.5749Z" fill="white" stroke="white" stroke-width="0.5"/>
<path d="M23.1984 11.7969H32.5994V14.1406H23.1984V11.7969Z" fill="white" stroke="white" stroke-width="0.5"/>
</g>
<defs>
<clipPath id="clip0_120_144">
<rect width="40.111" height="40" fill="white" transform="translate(0.792664)"/>
</clipPath>
</defs>
</svg>
