<svg width="40" height="41" viewBox="0 0 40 41" fill="none" xmlns="http://www.w3.org/2000/svg">
<path d="M30.3717 7.90189L30.6775 7.51765L30.2988 7.20501C27.3834 4.79787 23.6808 3.35998 19.6299 3.35998C18.2107 3.35998 16.8348 3.55879 15.532 3.8845L14.8049 4.06629L15.252 4.66785C16.6426 6.53872 18.6403 9.36428 21.0327 13.7896L21.2393 14.1718L21.6466 14.0205C26.1739 12.3395 28.8868 9.76804 30.3717 7.90189ZM13.0714 5.14412L12.8264 4.82133L12.4599 4.99422C7.96373 7.11505 4.55736 11.1659 3.21271 16.1128L3.04663 16.7238L3.67947 16.7437C6.15537 16.8217 12.0736 16.705 18.6312 14.9482L19.2497 14.7825L18.939 14.2226C16.3956 9.63894 14.2566 6.7054 13.0714 5.14412ZM32.5252 9.4031L32.1375 8.94246L31.7559 9.40819C30.0999 11.4294 27.2247 14.0547 22.6723 15.8361L22.166 16.0342L22.4057 16.5221C23.3872 18.5203 24.3394 20.6496 25.207 22.949L25.3499 23.3279L25.7503 23.2668C29.0435 22.7639 32.0877 22.7639 34.3871 22.944C34.9462 22.9904 35.307 23.0425 35.7269 23.1031C35.8153 23.1159 35.9064 23.1291 36.0025 23.1426L36.5145 23.2149L36.5695 22.7007C36.6369 22.0701 36.6757 21.4368 36.6757 20.7822C36.6757 16.4287 35.0984 12.4602 32.5252 9.4031ZM20.3782 17.0304L20.1931 16.6592L19.7941 16.7726C12.0809 18.9639 5.28616 18.897 3.17011 18.8116L2.68828 18.7921L2.6514 19.2729L2.64882 19.3066C2.61226 19.7831 2.57473 20.2721 2.57473 20.7918C2.57473 26.0256 4.8391 30.6976 8.41004 33.8945L8.78284 34.2283L9.11632 33.8552C10.0114 32.8539 11.212 31.5786 12.6717 30.2474L12.6736 30.2456C15.4199 27.7139 18.9533 25.0351 22.8023 23.8663L23.3192 23.7093L23.1229 23.2061C22.2613 20.9984 21.3337 18.9462 20.3782 17.0304ZM29.8678 24.9266L29.8624 24.9268C28.8512 24.9756 27.7749 25.0731 26.6804 25.2191L26.0856 25.2984L26.271 25.8692C27.1947 28.713 27.9588 31.7255 28.4524 34.8593L28.5767 35.6482L29.2321 35.1919C32.4181 32.9733 34.8282 29.6763 35.9509 25.8059L36.1161 25.2363L35.5268 25.1698C34.0667 25.0049 32.2154 24.8387 29.8678 24.9266ZM24.2117 26.1119L24.0581 25.6585L23.5985 25.7922C20.2171 26.7761 16.6803 29.3273 13.9999 31.7876C12.7046 32.9662 11.6586 34.085 10.8191 35.0015L10.4064 35.452L10.9297 35.7674C13.4752 37.3018 16.4312 38.2045 19.6205 38.2045C22.0142 38.2045 24.2719 37.6988 26.3338 36.8078L26.6818 36.6573L26.6309 36.2816C26.1466 32.7078 25.2924 29.3017 24.2117 26.1119ZM0.575806 20.7822C0.575806 10.029 9.14305 1.2832 19.6299 1.2832C30.1168 1.2832 38.6841 10.029 38.6841 20.7822C38.6841 31.5354 30.1168 40.2812 19.6299 40.2812C9.14305 40.2812 0.575806 31.5354 0.575806 20.7822Z" fill="white" stroke="white"/>
</svg>
