<svg width="40" height="41" viewBox="0 0 40 41" fill="none" xmlns="http://www.w3.org/2000/svg">
<path d="M11.8743 1.29281H12.3743V1.2832H28.2791C34.2437 1.2832 39.1261 6.26789 39.1261 12.3952V29.1692C39.1261 35.2968 34.2434 40.2812 28.2885 40.2812H11.8743C5.90841 40.2812 1.01788 35.3048 1.01788 29.1884V12.4048C1.01788 6.27805 5.90921 1.29281 11.8743 1.29281ZM3.02621 12.4135V12.4144V29.1981C3.02621 34.1842 6.95377 38.2148 11.8743 38.2148H28.2885C33.1917 38.2148 37.1178 34.1827 37.1178 29.1788V12.4048C37.1178 7.4006 33.1913 3.36885 28.2791 3.36885H11.8743C6.96156 3.36885 3.03614 7.40093 3.02621 12.4135ZM31.1106 8.4829C31.1106 7.89297 31.5646 7.44489 32.1147 7.44489C32.6648 7.44489 33.1189 7.89297 33.1189 8.4829C33.1189 9.07283 32.6648 9.52092 32.1147 9.52092C31.5646 9.52092 31.1106 9.07283 31.1106 8.4829ZM10.0523 20.787C10.0523 15.1313 14.577 10.5209 20.0814 10.5209C25.5859 10.5209 30.1106 15.1313 30.1106 20.787C30.1106 26.4428 25.5859 31.0532 20.0814 31.0532C14.577 31.0532 10.0523 26.4428 10.0523 20.787ZM28.1022 20.787C28.1022 16.2534 24.542 12.597 20.0814 12.597C15.6208 12.597 12.0606 16.2534 12.0606 20.787C12.0606 25.3206 15.6208 28.9771 20.0814 28.9771C24.542 28.9771 28.1022 25.3206 28.1022 20.787Z" fill="white" stroke="white"/>
</svg>
