<svg width="41" height="41" viewBox="0 0 41 41" fill="none" xmlns="http://www.w3.org/2000/svg">
<path d="M34.2829 0.642578H5.8838C2.63944 0.642578 0 3.27494 0 6.51061V34.8336C0 38.0693 2.63944 40.7017 5.8838 40.7017H34.2829C37.5273 40.7017 40.1667 38.0693 40.1667 34.8336V6.51061C40.1667 3.27494 37.5273 0.642578 34.2829 0.642578ZM37.8132 34.8336C37.8132 36.775 36.2295 38.3544 34.2829 38.3544H5.8838C3.93724 38.3544 2.35352 36.775 2.35352 34.8336V6.51061C2.35352 4.56927 3.93724 2.98979 5.8838 2.98979H34.2829C36.2295 2.98979 37.8132 4.56927 37.8132 6.51061V34.8336Z" fill="white"/>
<path d="M7 15H8.77778V25.2222H23V16.7778H20.1111L14.7778 25.2222H12.5556L17.6667 16.7778H10.1111V15H34.1111L32.3333 16.7778H24.7778V25.2222H32.1111L33.4444 27H7V15Z" fill="white"/>
</svg>
