<svg width="42" height="41" viewBox="0 0 42 41" fill="none" xmlns="http://www.w3.org/2000/svg">
<path d="M35.2829 0.642578H6.8838C3.63944 0.642578 1 3.27494 1 6.51061V34.8336C1 38.0693 3.63944 40.7017 6.8838 40.7017H35.2829C38.5273 40.7017 41.1667 38.0693 41.1667 34.8336V6.51061C41.1667 3.27494 38.5273 0.642578 35.2829 0.642578ZM38.8132 34.8336C38.8132 36.775 37.2295 38.3544 35.2829 38.3544H6.8838C4.93724 38.3544 3.35352 36.775 3.35352 34.8336V6.51061C3.35352 4.56927 4.93724 2.98979 6.8838 2.98979H35.2829C37.2295 2.98979 38.8132 4.56927 38.8132 6.51061V34.8336Z" fill="#070707" stroke="#070707" stroke-width="0.5"/>
<path d="M8 15H9.77778V25.2222H24V16.7778H21.1111L15.7778 25.2222H13.5556L18.6667 16.7778H11.1111V15H35.1111L33.3333 16.7778H25.7778V25.2222H33.1111L34.4444 27H8V15Z" fill="#070707"/>
</svg>
